<?xml version="1.0" encoding="UTF-8"?>
<svg width="120" height="120" viewBox="0 0 120 120" xmlns="http://www.w3.org/2000/svg">
  <!-- Base circle for Ada -->
  <circle cx="60" cy="60" r="50" fill="#8B5CF6" />
  
  <!-- Face -->
  <circle cx="60" cy="60" r="35" fill="#F5F3FF" />
  
  <!-- Eyes -->
  <circle cx="48" cy="55" r="5" fill="#3730A3" />
  <circle cx="72" cy="55" r="5" fill="#3730A3" />
  
  <!-- Eyelashes for Ada -->
  <line x1="43" y1="50" x2="45" y2="48" stroke="#3730A3" stroke-width="1.5" />
  <line x1="48" y1="48" x2="48" y2="46" stroke="#3730A3" stroke-width="1.5" />
  <line x1="53" y1="50" x2="51" y2="48" stroke="#3730A3" stroke-width="1.5" />
  
  <line x1="67" y1="50" x2="69" y2="48" stroke="#3730A3" stroke-width="1.5" />
  <line x1="72" y1="48" x2="72" y2="46" stroke="#3730A3" stroke-width="1.5" />
  <line x1="77" y1="50" x2="75" y2="48" stroke="#3730A3" stroke-width="1.5" />
  
  <!-- Admin glasses -->
  <rect x="42" y="55" width="12" height="5" rx="2" fill="none" stroke="#A78BFA" stroke-width="1.5" />
  <rect x="66" y="55" width="12" height="5" rx="2" fill="none" stroke="#A78BFA" stroke-width="1.5" />
  <line x1="54" y1="57" x2="66" y2="57" stroke="#A78BFA" stroke-width="1.5" />
  
  <!-- Friendly smile -->
  <path d="M50,70 Q60,75 70,70" fill="none" stroke="#3730A3" stroke-width="2" stroke-linecap="round" />
  
  <!-- Admin clipboard -->
  <rect x="85" y="55" width="12" height="15" rx="1" fill="#F3E8FF" stroke="#3730A3" stroke-width="1" />
  <line x1="88" y1="60" x2="94" y2="60" stroke="#3730A3" stroke-width="1" />
  <line x1="88" y1="64" x2="94" y2="64" stroke="#3730A3" stroke-width="1" />
  <line x1="88" y1="68" x2="92" y2="68" stroke="#3730A3" stroke-width="1" />
  
  <!-- Ada's elegant hair -->
  <path d="M35,50 C30,40 35,25 60,25 C85,25 90,40 85,50" fill="#3730A3" />
  <path d="M37,52 C34,44 38,30 60,30 C82,30 86,44 83,52" fill="#4338CA" />
  
  <!-- Admin badge -->
  <circle cx="38" cy="65" r="7" fill="#F3E8FF" stroke="#3730A3" stroke-width="1" />
  <text x="35" y="68" font-family="Arial" font-size="8" fill="#3730A3">A</text>
</svg>