<?xml version="1.0" encoding="UTF-8"?>
<svg width="120" height="120" viewBox="0 0 120 120" xmlns="http://www.w3.org/2000/svg">
  <!-- Base circle for Sammy -->
  <circle cx="60" cy="60" r="50" fill="#A78BFA" />
  
  <!-- Face -->
  <circle cx="60" cy="60" r="35" fill="#F5F3FF" />
  
  <!-- Eyes -->
  <circle cx="50" cy="55" r="5" fill="#3730A3" />
  <circle cx="70" cy="55" r="5" fill="#3730A3" />
  
  <!-- Eye shine -->
  <circle cx="52" cy="53" r="1.5" fill="white" />
  <circle cx="72" cy="53" r="1.5" fill="white" />
  
  <!-- Happy smile -->
  <path d="M50,70 Q60,80 70,70" fill="none" stroke="#3730A3" stroke-width="2.5" stroke-linecap="round" />
  
  <!-- Student cap -->
  <path d="M35,45 L85,45 L85,30 C85,30 70,15 60,15 C50,15 35,30 35,30 Z" fill="#8B5CF6" />
  <path d="M35,45 L85,45 L85,30 C85,30 70,15 60,15 C50,15 35,30 35,30 Z" fill="none" stroke="#3730A3" stroke-width="1" />
  <rect x="30" y="45" width="60" height="5" rx="2" fill="#6D28D9" />
  
  <!-- Cap tassel -->
  <line x1="60" y1="45" x2="60" y2="55" stroke="#F3E8FF" stroke-width="2" />
  <circle cx="60" cy="58" r="3" fill="#F3E8FF" />
  
  <!-- Books/notebook -->
  <rect x="85" y="60" width="15" height="20" rx="1" fill="#EDE9FE" stroke="#3730A3" stroke-width="1" />
  <rect x="85" y="60" width="15" height="5" rx="1" fill="#C4B5FD" />
  <line x1="90" y1="70" x2="95" y2="70" stroke="#3730A3" stroke-width="1" />
  <line x1="90" y1="74" x2="92" y2="74" stroke="#3730A3" stroke-width="1" />
  
  <!-- Student's excitement marks -->
  <path d="M25,40 L20,35" stroke="#F3E8FF" stroke-width="2" stroke-linecap="round" />
  <path d="M23,50 L18,50" stroke="#F3E8FF" stroke-width="2" stroke-linecap="round" />
  <path d="M25,60 L20,65" stroke="#F3E8FF" stroke-width="2" stroke-linecap="round" />
  
  <!-- Pencil behind ear -->
  <line x1="80" y1="40" x2="90" y2="45" stroke="#F59E0B" stroke-width="2" />
  <path d="M90,45 L92,44 L91,46 Z" fill="#78350F" />
</svg>