<svg width="120" height="120" viewBox="0 0 120 120" xmlns="http://www.w3.org/2000/svg">
  <!-- Background circle -->
  <circle cx="60" cy="60" r="55" fill="#A78BFA" stroke="#8B5CF6" stroke-width="2"/>
  
  <!-- Face -->
  <circle cx="60" cy="65" r="30" fill="#FBBF24" stroke="#F59E0B" stroke-width="1"/>
  
  <!-- Eyes -->
  <circle cx="52" cy="58" r="3" fill="#1F2937"/>
  <circle cx="68" cy="58" r="3" fill="#1F2937"/>
  <circle cx="53" cy="57" r="1" fill="white"/>
  <circle cx="69" cy="57" r="1" fill="white"/>
  
  <!-- Smile -->
  <path d="M 52 70 Q 60 76 68 70" stroke="#1F2937" stroke-width="2" fill="none" stroke-linecap="round"/>
  
  <!-- Graduation cap -->
  <polygon points="35,50 85,50 85,35 60,20 35,35" fill="#1F2937"/>
  <rect x="30" y="50" width="60" height="6" fill="#374151"/>
  <circle cx="60" cy="53" r="2" fill="#F59E0B"/>
  
  <!-- Cap tassel -->
  <line x1="60" y1="55" x2="60" y2="65" stroke="#F59E0B" stroke-width="2"/>
  <circle cx="60" cy="67" r="2" fill="#F59E0B"/>
  
  <!-- Book -->
  <rect x="20" y="75" width="12" height="16" fill="#EF4444" stroke="#DC2626" stroke-width="1"/>
  <line x1="22" y1="80" x2="30" y2="80" stroke="white" stroke-width="1"/>
  <line x1="22" y1="84" x2="28" y2="84" stroke="white" stroke-width="1"/>
  
  <!-- Pencil -->
  <rect x="88" y="75" width="2" height="12" fill="#F59E0B"/>
  <polygon points="88,75 90,75 89,72" fill="#EF4444"/>
</svg>